<?xml version="1.0" encoding="UTF-8" standalone="no"?>
<!-- Created with Inkscape (http://www.inkscape.org/) -->

<svg
   xmlns:dc="http://purl.org/dc/elements/1.1/"
   xmlns:cc="http://creativecommons.org/ns#"
   xmlns:rdf="http://www.w3.org/1999/02/22-rdf-syntax-ns#"
   xmlns:svg="http://www.w3.org/2000/svg"
   xmlns="http://www.w3.org/2000/svg"
   xmlns:sodipodi="http://sodipodi.sourceforge.net/DTD/sodipodi-0.dtd"
   xmlns:inkscape="http://www.inkscape.org/namespaces/inkscape"
   version="1.1"
   id="svg2"
   xml:space="preserve"
   width="540.84375"
   height="469.39191"
   viewBox="0 0 540.84377 469.39189"
   sodipodi:docname="logo.svg"
   inkscape:version="0.92.5 (2060ec1f9f, 2020-04-08)"><metadata
     id="metadata8"><rdf:RDF><cc:Work
         rdf:about=""><dc:format>image/svg+xml</dc:format><dc:type
           rdf:resource="http://purl.org/dc/dcmitype/StillImage" /><dc:title /></cc:Work></rdf:RDF></metadata><defs
     id="defs6" /><sodipodi:namedview
     pagecolor="#ffffff"
     bordercolor="#666666"
     borderopacity="1"
     objecttolerance="10"
     gridtolerance="10"
     guidetolerance="10"
     inkscape:pageopacity="0"
     inkscape:pageshadow="2"
     inkscape:window-width="1848"
     inkscape:window-height="1016"
     id="namedview4"
     showgrid="false"
     inkscape:zoom="0.62578945"
     inkscape:cx="42.582734"
     inkscape:cy="123.78036"
     inkscape:window-x="72"
     inkscape:window-y="27"
     inkscape:window-maximized="1"
     inkscape:current-layer="g12"
     inkscape:snap-grids="true" /><g
     id="g10"
     inkscape:groupmode="layer"
     inkscape:label="ink_ext_XXXXXX"
     transform="matrix(1.3333333,0,0,-1.3333333,-359.22454,830.95596)"><g
       id="g12"
       transform="matrix(0.1,0,0,0.1,-32.415258,32.838986)"><g
   id="g16"
   transform="matrix(0.94386244,0,0,0.95914761,277.30582,181.25918)"><path
     inkscape:connector-curvature="0"
     id="path14"
     style="fill:#211c1d;fill-opacity:1;fill-rule:nonzero;stroke:none"
     d="m 4771.04,3292.1 -0.08,-247.06 c 74.6,-11.94 151.08,-18.23 229.04,-18.23 77.8,0 154.12,6.26 228.57,18.15 l 0.08,247.08 0.64,2013.82 -457.59,0.28 -0.66,-2014.04" /><path
     inkscape:connector-curvature="0"
     id="path16"
     style="fill:#211c1d;fill-opacity:1;fill-rule:nonzero;stroke:none"
     d="m 5000,5903.78 c -794.46,0 -1438.49,-644.03 -1438.49,-1438.48 0,-509.24 264.62,-956.66 663.85,-1212.29 138.16,-88.48 292.48,-153.91 457.51,-191.04 l 0.06,250.73 0.4,1461.14 -457.6,0.28 -0.3,-1218.99 c -257.35,219.22 -420.63,545.6 -420.63,910.17 0,660.08 535.11,1195.19 1195.2,1195.19 660.09,0 1195.19,-535.11 1195.19,-1195.19 0,-363.25 -162.09,-688.6 -417.83,-907.81 l -0.3,1216.63 -457.59,-0.28 0.39,-1460.38 0.06,-250.89 c 165.1,37.5 319.4,103.37 457.51,192.25 397.67,255.93 661.05,702.44 661.05,1210.48 0,794.45 -644.03,1438.48 -1438.48,1438.48" /><text
     transform="scale(1,-1)"
     id="text50"
     y="-2393.5359"
     x="2978.6101"
     style="font-style:normal;font-variant:normal;font-weight:normal;font-stretch:normal;font-size:720px;line-height:16.55000114;font-family:serif;-inkscape-font-specification:'serif, Normal';font-variant-ligatures:normal;font-variant-caps:normal;font-variant-numeric:normal;font-feature-settings:normal;text-align:start;letter-spacing:0px;word-spacing:0px;writing-mode:lr-tb;text-anchor:start;fill:#000000;fill-opacity:1;stroke:none;stroke-width:7.5"
     xml:space="preserve"><tspan
       style="font-style:normal;font-variant:normal;font-weight:normal;font-stretch:normal;font-size:720px;line-height:16.55000114;font-family:serif;-inkscape-font-specification:'serif, Normal';font-variant-ligatures:normal;font-variant-caps:normal;font-variant-numeric:normal;font-feature-settings:normal;text-align:start;writing-mode:lr-tb;text-anchor:start;stroke-width:7.5"
       y="-2393.5359"
       x="2978.6101"
       id="tspan48"
       sodipodi:role="line">Investment</tspan></text>
</g>
</g></g></svg>